<mxfile host="app.diagrams.net" modified="2023-05-12T16:33:24.333Z" agent="Mozilla/5.0 (Windows NT 10.0; Win64; x64) AppleWebKit/537.36 (KHTML, like Gecko) Chrome/113.0.0.0 Safari/537.36" etag="9nuykvH5AYIkPwgGasOY" version="21.2.9" type="github">
  <diagram name="Page-1" id="_14LEz57tPDZyepLyran">
    <mxGraphModel dx="2243" dy="910" grid="0" gridSize="10" guides="1" tooltips="1" connect="1" arrows="1" fold="1" page="0" pageScale="1" pageWidth="827" pageHeight="1169" math="0" shadow="0">
      <root>
        <mxCell id="0" />
        <mxCell id="1" parent="0" />
        <mxCell id="Fv8zS5hwz5xopzhGxC3f-1" value="student" style="shape=umlActor;verticalLabelPosition=bottom;verticalAlign=top;html=1;outlineConnect=0;fontSize=16;" vertex="1" parent="1">
          <mxGeometry x="-217" y="24" width="30" height="60" as="geometry" />
        </mxCell>
        <mxCell id="Fv8zS5hwz5xopzhGxC3f-3" value="" style="rounded=0;whiteSpace=wrap;html=1;fontSize=16;" vertex="1" parent="1">
          <mxGeometry x="-224" y="320" width="24" height="60" as="geometry" />
        </mxCell>
        <mxCell id="Fv8zS5hwz5xopzhGxC3f-4" value="" style="endArrow=none;dashed=1;html=1;dashPattern=1 3;strokeWidth=2;rounded=0;fontSize=12;startSize=8;endSize=8;curved=1;exitX=0.5;exitY=0;exitDx=0;exitDy=0;entryX=0;entryY=1;entryDx=0;entryDy=0;entryPerimeter=0;" edge="1" parent="1" source="Fv8zS5hwz5xopzhGxC3f-3" target="Fv8zS5hwz5xopzhGxC3f-1">
          <mxGeometry width="50" height="50" relative="1" as="geometry">
            <mxPoint x="-297" y="158" as="sourcePoint" />
            <mxPoint x="-247" y="108" as="targetPoint" />
          </mxGeometry>
        </mxCell>
        <mxCell id="Fv8zS5hwz5xopzhGxC3f-5" value="" style="endArrow=none;html=1;rounded=0;fontSize=12;startSize=8;endSize=8;curved=1;" edge="1" parent="1">
          <mxGeometry width="50" height="50" relative="1" as="geometry">
            <mxPoint x="-218" y="143" as="sourcePoint" />
            <mxPoint x="166" y="138" as="targetPoint" />
          </mxGeometry>
        </mxCell>
        <mxCell id="Fv8zS5hwz5xopzhGxC3f-6" value="" style="rounded=0;whiteSpace=wrap;html=1;fontSize=16;" vertex="1" parent="1">
          <mxGeometry x="106" y="39" width="120" height="60" as="geometry" />
        </mxCell>
        <mxCell id="Fv8zS5hwz5xopzhGxC3f-7" value="device" style="text;html=1;align=center;verticalAlign=middle;resizable=0;points=[];autosize=1;strokeColor=none;fillColor=none;fontSize=16;" vertex="1" parent="1">
          <mxGeometry x="123" y="56" width="64" height="31" as="geometry" />
        </mxCell>
        <mxCell id="Fv8zS5hwz5xopzhGxC3f-8" value="1:Open the Print Documents page" style="text;html=1;align=center;verticalAlign=middle;resizable=0;points=[];autosize=1;strokeColor=none;fillColor=none;fontSize=16;" vertex="1" parent="1">
          <mxGeometry x="-178" y="101" width="260" height="31" as="geometry" />
        </mxCell>
        <mxCell id="Fv8zS5hwz5xopzhGxC3f-9" value="" style="endArrow=none;dashed=1;html=1;rounded=0;fontSize=12;startSize=8;endSize=8;curved=1;entryX=0.5;entryY=1;entryDx=0;entryDy=0;exitX=0.5;exitY=0;exitDx=0;exitDy=0;" edge="1" parent="1" source="Fv8zS5hwz5xopzhGxC3f-31" target="Fv8zS5hwz5xopzhGxC3f-6">
          <mxGeometry width="50" height="50" relative="1" as="geometry">
            <mxPoint x="166" y="225" as="sourcePoint" />
            <mxPoint x="168" y="220" as="targetPoint" />
          </mxGeometry>
        </mxCell>
        <mxCell id="Fv8zS5hwz5xopzhGxC3f-10" value="Application Databass" style="rounded=0;whiteSpace=wrap;html=1;fontSize=16;" vertex="1" parent="1">
          <mxGeometry x="452" y="45" width="120" height="60" as="geometry" />
        </mxCell>
        <mxCell id="Fv8zS5hwz5xopzhGxC3f-18" value="" style="endArrow=none;dashed=1;html=1;rounded=0;fontSize=12;startSize=8;endSize=8;curved=1;entryX=0.5;entryY=1;entryDx=0;entryDy=0;exitX=0.5;exitY=0;exitDx=0;exitDy=0;" edge="1" parent="1" source="Fv8zS5hwz5xopzhGxC3f-19" target="Fv8zS5hwz5xopzhGxC3f-10">
          <mxGeometry width="50" height="50" relative="1" as="geometry">
            <mxPoint x="508" y="233" as="sourcePoint" />
            <mxPoint x="503" y="217" as="targetPoint" />
          </mxGeometry>
        </mxCell>
        <mxCell id="Fv8zS5hwz5xopzhGxC3f-19" value="" style="rounded=1;whiteSpace=wrap;html=1;fontSize=16;" vertex="1" parent="1">
          <mxGeometry x="500.5" y="239" width="23" height="55" as="geometry" />
        </mxCell>
        <mxCell id="Fv8zS5hwz5xopzhGxC3f-20" value="" style="endArrow=classic;html=1;rounded=0;fontSize=12;startSize=8;endSize=8;curved=1;entryX=0;entryY=0.5;entryDx=0;entryDy=0;exitX=1;exitY=0.5;exitDx=0;exitDy=0;" edge="1" parent="1" source="Fv8zS5hwz5xopzhGxC3f-49" target="Fv8zS5hwz5xopzhGxC3f-19">
          <mxGeometry width="50" height="50" relative="1" as="geometry">
            <mxPoint x="177.5" y="246.5" as="sourcePoint" />
            <mxPoint x="484" y="258" as="targetPoint" />
          </mxGeometry>
        </mxCell>
        <mxCell id="Fv8zS5hwz5xopzhGxC3f-17" value="3:Request print requests" style="text;html=1;align=center;verticalAlign=middle;resizable=0;points=[];autosize=1;strokeColor=none;fillColor=none;fontSize=16;rotation=0;" vertex="1" parent="1">
          <mxGeometry x="238" y="223" width="192" height="31" as="geometry" />
        </mxCell>
        <mxCell id="Fv8zS5hwz5xopzhGxC3f-30" value="" style="endArrow=none;dashed=1;html=1;dashPattern=1 3;strokeWidth=2;rounded=0;fontSize=12;startSize=8;endSize=8;curved=1;exitX=0.5;exitY=0;exitDx=0;exitDy=0;entryX=0.5;entryY=1;entryDx=0;entryDy=0;" edge="1" parent="1" source="Fv8zS5hwz5xopzhGxC3f-32" target="Fv8zS5hwz5xopzhGxC3f-49">
          <mxGeometry width="50" height="50" relative="1" as="geometry">
            <mxPoint x="166" y="298" as="sourcePoint" />
            <mxPoint x="166" y="277" as="targetPoint" />
          </mxGeometry>
        </mxCell>
        <mxCell id="Fv8zS5hwz5xopzhGxC3f-32" value="" style="rounded=1;whiteSpace=wrap;html=1;fontSize=16;" vertex="1" parent="1">
          <mxGeometry x="152" y="325" width="23" height="43" as="geometry" />
        </mxCell>
        <mxCell id="Fv8zS5hwz5xopzhGxC3f-34" value="" style="endArrow=block;dashed=1;endFill=0;endSize=12;html=1;rounded=0;fontSize=12;curved=1;exitX=0;exitY=0.5;exitDx=0;exitDy=0;entryX=1;entryY=0.5;entryDx=0;entryDy=0;" edge="1" parent="1" source="Fv8zS5hwz5xopzhGxC3f-32" target="Fv8zS5hwz5xopzhGxC3f-3">
          <mxGeometry width="160" relative="1" as="geometry">
            <mxPoint x="152" y="338" as="sourcePoint" />
            <mxPoint x="51" y="359" as="targetPoint" />
          </mxGeometry>
        </mxCell>
        <mxCell id="Fv8zS5hwz5xopzhGxC3f-35" value="4:&amp;nbsp; Retrieve print requests" style="text;html=1;align=center;verticalAlign=middle;resizable=0;points=[];autosize=1;strokeColor=none;fillColor=none;fontSize=16;" vertex="1" parent="1">
          <mxGeometry x="213" y="294" width="201" height="31" as="geometry" />
        </mxCell>
        <mxCell id="Fv8zS5hwz5xopzhGxC3f-36" value="5: display the list of documents to be printed" style="text;html=1;align=center;verticalAlign=middle;resizable=0;points=[];autosize=1;strokeColor=none;fillColor=none;fontSize=16;" vertex="1" parent="1">
          <mxGeometry x="-187" y="289" width="330" height="31" as="geometry" />
        </mxCell>
        <mxCell id="Fv8zS5hwz5xopzhGxC3f-37" value="" style="endArrow=none;dashed=1;html=1;rounded=0;fontSize=12;startSize=8;endSize=8;curved=1;entryX=0.5;entryY=1;entryDx=0;entryDy=0;exitX=0.5;exitY=0;exitDx=0;exitDy=0;" edge="1" parent="1" source="Fv8zS5hwz5xopzhGxC3f-39" target="Fv8zS5hwz5xopzhGxC3f-3">
          <mxGeometry width="50" height="50" relative="1" as="geometry">
            <mxPoint x="-214" y="404" as="sourcePoint" />
            <mxPoint x="-258" y="461" as="targetPoint" />
          </mxGeometry>
        </mxCell>
        <mxCell id="Fv8zS5hwz5xopzhGxC3f-39" value="" style="rounded=0;whiteSpace=wrap;html=1;fontSize=16;" vertex="1" parent="1">
          <mxGeometry x="-221" y="523" width="24" height="60" as="geometry" />
        </mxCell>
        <mxCell id="Fv8zS5hwz5xopzhGxC3f-40" value="" style="endArrow=classic;html=1;rounded=0;fontSize=12;startSize=8;endSize=8;curved=1;exitX=1;exitY=0.5;exitDx=0;exitDy=0;entryX=0;entryY=0.5;entryDx=0;entryDy=0;" edge="1" parent="1" source="Fv8zS5hwz5xopzhGxC3f-39" target="Fv8zS5hwz5xopzhGxC3f-42">
          <mxGeometry width="50" height="50" relative="1" as="geometry">
            <mxPoint x="-66" y="475" as="sourcePoint" />
            <mxPoint x="132" y="434" as="targetPoint" />
          </mxGeometry>
        </mxCell>
        <mxCell id="Fv8zS5hwz5xopzhGxC3f-41" value="" style="endArrow=none;dashed=1;html=1;rounded=0;fontSize=12;startSize=8;endSize=8;curved=1;entryX=0.5;entryY=1;entryDx=0;entryDy=0;exitX=0.5;exitY=0;exitDx=0;exitDy=0;" edge="1" parent="1" source="Fv8zS5hwz5xopzhGxC3f-42" target="Fv8zS5hwz5xopzhGxC3f-32">
          <mxGeometry width="50" height="50" relative="1" as="geometry">
            <mxPoint x="166" y="398" as="sourcePoint" />
            <mxPoint x="243" y="439" as="targetPoint" />
          </mxGeometry>
        </mxCell>
        <mxCell id="Fv8zS5hwz5xopzhGxC3f-42" value="" style="rounded=1;whiteSpace=wrap;html=1;fontSize=16;" vertex="1" parent="1">
          <mxGeometry x="154.5" y="490" width="23" height="117" as="geometry" />
        </mxCell>
        <mxCell id="Fv8zS5hwz5xopzhGxC3f-46" value="6:Choose the document want to delete" style="text;html=1;align=center;verticalAlign=middle;resizable=0;points=[];autosize=1;strokeColor=none;fillColor=none;fontSize=16;" vertex="1" parent="1">
          <mxGeometry x="-163" y="480" width="292" height="31" as="geometry" />
        </mxCell>
        <mxCell id="Fv8zS5hwz5xopzhGxC3f-48" value="" style="endArrow=none;dashed=1;html=1;rounded=0;fontSize=12;startSize=8;endSize=8;curved=1;entryX=0.5;entryY=1;entryDx=0;entryDy=0;exitX=0.5;exitY=0;exitDx=0;exitDy=0;" edge="1" parent="1" target="Fv8zS5hwz5xopzhGxC3f-31">
          <mxGeometry width="50" height="50" relative="1" as="geometry">
            <mxPoint x="166" y="225" as="sourcePoint" />
            <mxPoint x="166" y="161" as="targetPoint" />
          </mxGeometry>
        </mxCell>
        <mxCell id="Fv8zS5hwz5xopzhGxC3f-51" style="edgeStyle=none;curved=1;rounded=0;orthogonalLoop=1;jettySize=auto;html=1;exitX=0;exitY=0.5;exitDx=0;exitDy=0;entryX=0;entryY=0.5;entryDx=0;entryDy=0;fontSize=12;startSize=8;endSize=8;" edge="1" parent="1" source="Fv8zS5hwz5xopzhGxC3f-31" target="Fv8zS5hwz5xopzhGxC3f-49">
          <mxGeometry relative="1" as="geometry">
            <Array as="points">
              <mxPoint x="73" y="237" />
            </Array>
          </mxGeometry>
        </mxCell>
        <mxCell id="Fv8zS5hwz5xopzhGxC3f-31" value="" style="rounded=1;whiteSpace=wrap;html=1;fontSize=16;" vertex="1" parent="1">
          <mxGeometry x="154.5" y="180" width="23" height="43" as="geometry" />
        </mxCell>
        <mxCell id="Fv8zS5hwz5xopzhGxC3f-49" value="" style="rounded=1;whiteSpace=wrap;html=1;fontSize=16;" vertex="1" parent="1">
          <mxGeometry x="154.5" y="246" width="23" height="43" as="geometry" />
        </mxCell>
        <mxCell id="Fv8zS5hwz5xopzhGxC3f-52" value="2: Check that the application duration is less than an hour" style="text;whiteSpace=wrap;html=1;fontSize=16;rotation=-90;" vertex="1" parent="1">
          <mxGeometry x="-15" y="189" width="138" height="41" as="geometry" />
        </mxCell>
        <mxCell id="Fv8zS5hwz5xopzhGxC3f-53" value="" style="rounded=1;whiteSpace=wrap;html=1;fontSize=16;" vertex="1" parent="1">
          <mxGeometry x="500.5" y="325" width="23" height="55" as="geometry" />
        </mxCell>
        <mxCell id="Fv8zS5hwz5xopzhGxC3f-54" value="" style="endArrow=none;dashed=1;html=1;rounded=0;fontSize=12;startSize=8;endSize=8;curved=1;entryX=0.5;entryY=1;entryDx=0;entryDy=0;exitX=0.5;exitY=0;exitDx=0;exitDy=0;" edge="1" parent="1" source="Fv8zS5hwz5xopzhGxC3f-53" target="Fv8zS5hwz5xopzhGxC3f-19">
          <mxGeometry width="50" height="50" relative="1" as="geometry">
            <mxPoint x="295" y="535" as="sourcePoint" />
            <mxPoint x="345" y="485" as="targetPoint" />
          </mxGeometry>
        </mxCell>
        <mxCell id="Fv8zS5hwz5xopzhGxC3f-55" value="" style="endArrow=none;dashed=1;html=1;rounded=0;fontSize=12;startSize=8;endSize=8;curved=1;exitX=0.5;exitY=0;exitDx=0;exitDy=0;entryX=0.5;entryY=1;entryDx=0;entryDy=0;" edge="1" parent="1" source="Fv8zS5hwz5xopzhGxC3f-49" target="Fv8zS5hwz5xopzhGxC3f-31">
          <mxGeometry width="50" height="50" relative="1" as="geometry">
            <mxPoint x="522" y="249" as="sourcePoint" />
            <mxPoint x="168" y="226" as="targetPoint" />
          </mxGeometry>
        </mxCell>
        <mxCell id="Fv8zS5hwz5xopzhGxC3f-57" value="" style="endArrow=block;dashed=1;endFill=0;endSize=12;html=1;rounded=0;fontSize=12;curved=1;exitX=0;exitY=0.5;exitDx=0;exitDy=0;" edge="1" parent="1" source="Fv8zS5hwz5xopzhGxC3f-53" target="Fv8zS5hwz5xopzhGxC3f-32">
          <mxGeometry width="160" relative="1" as="geometry">
            <mxPoint x="278" y="364" as="sourcePoint" />
            <mxPoint x="438" y="364" as="targetPoint" />
          </mxGeometry>
        </mxCell>
        <mxCell id="Fv8zS5hwz5xopzhGxC3f-58" value="" style="endArrow=none;dashed=1;html=1;rounded=0;fontSize=12;startSize=8;endSize=8;curved=1;entryX=0.5;entryY=1;entryDx=0;entryDy=0;exitX=0.5;exitY=0;exitDx=0;exitDy=0;" edge="1" parent="1" source="Fv8zS5hwz5xopzhGxC3f-59" target="Fv8zS5hwz5xopzhGxC3f-53">
          <mxGeometry width="50" height="50" relative="1" as="geometry">
            <mxPoint x="508" y="466" as="sourcePoint" />
            <mxPoint x="465" y="465" as="targetPoint" />
          </mxGeometry>
        </mxCell>
        <mxCell id="Fv8zS5hwz5xopzhGxC3f-59" value="" style="rounded=1;whiteSpace=wrap;html=1;fontSize=16;" vertex="1" parent="1">
          <mxGeometry x="500.5" y="503" width="23" height="55" as="geometry" />
        </mxCell>
        <mxCell id="Fv8zS5hwz5xopzhGxC3f-60" value="" style="endArrow=classic;html=1;rounded=0;fontSize=12;startSize=8;endSize=8;curved=1;exitX=1;exitY=0.5;exitDx=0;exitDy=0;entryX=0;entryY=0.75;entryDx=0;entryDy=0;" edge="1" parent="1" source="Fv8zS5hwz5xopzhGxC3f-42" target="Fv8zS5hwz5xopzhGxC3f-59">
          <mxGeometry width="50" height="50" relative="1" as="geometry">
            <mxPoint x="280" y="578" as="sourcePoint" />
            <mxPoint x="330" y="528" as="targetPoint" />
          </mxGeometry>
        </mxCell>
        <mxCell id="Fv8zS5hwz5xopzhGxC3f-61" value="7: Delete the request" style="text;whiteSpace=wrap;html=1;fontSize=16;" vertex="1" parent="1">
          <mxGeometry x="259.0033333333335" y="466.0000162760417" width="159" height="41" as="geometry" />
        </mxCell>
        <mxCell id="Fv8zS5hwz5xopzhGxC3f-63" value="" style="endArrow=none;dashed=1;html=1;rounded=0;fontSize=12;startSize=8;endSize=8;curved=1;entryX=1;entryY=1;entryDx=0;entryDy=0;exitX=0.5;exitY=0;exitDx=0;exitDy=0;entryPerimeter=0;" edge="1" parent="1" source="Fv8zS5hwz5xopzhGxC3f-64" target="Fv8zS5hwz5xopzhGxC3f-78">
          <mxGeometry width="50" height="50" relative="1" as="geometry">
            <mxPoint x="782" y="409" as="sourcePoint" />
            <mxPoint x="782" y="105" as="targetPoint" />
          </mxGeometry>
        </mxCell>
        <mxCell id="Fv8zS5hwz5xopzhGxC3f-64" value="" style="rounded=1;whiteSpace=wrap;html=1;fontSize=16;" vertex="1" parent="1">
          <mxGeometry x="785" y="523" width="23" height="160" as="geometry" />
        </mxCell>
        <mxCell id="Fv8zS5hwz5xopzhGxC3f-66" value="" style="endArrow=classic;html=1;rounded=0;fontSize=12;startSize=8;endSize=8;curved=1;exitX=1;exitY=0.75;exitDx=0;exitDy=0;entryX=0.116;entryY=0.324;entryDx=0;entryDy=0;entryPerimeter=0;" edge="1" parent="1" source="Fv8zS5hwz5xopzhGxC3f-42" target="Fv8zS5hwz5xopzhGxC3f-64">
          <mxGeometry width="50" height="50" relative="1" as="geometry">
            <mxPoint x="213" y="601" as="sourcePoint" />
            <mxPoint x="743" y="564" as="targetPoint" />
          </mxGeometry>
        </mxCell>
        <mxCell id="Fv8zS5hwz5xopzhGxC3f-68" value="8:Send a notification that the request has been deleted" style="text;whiteSpace=wrap;html=1;fontSize=16;" vertex="1" parent="1">
          <mxGeometry x="284.00333333333344" y="582.9966829427083" width="403" height="41" as="geometry" />
        </mxCell>
        <mxCell id="Fv8zS5hwz5xopzhGxC3f-69" value="" style="endArrow=none;dashed=1;html=1;rounded=0;fontSize=12;startSize=8;endSize=8;curved=1;entryX=0.5;entryY=1;entryDx=0;entryDy=0;exitX=0.5;exitY=0;exitDx=0;exitDy=0;" edge="1" parent="1" source="Fv8zS5hwz5xopzhGxC3f-70" target="Fv8zS5hwz5xopzhGxC3f-42">
          <mxGeometry width="50" height="50" relative="1" as="geometry">
            <mxPoint x="162" y="667" as="sourcePoint" />
            <mxPoint x="160" y="689" as="targetPoint" />
          </mxGeometry>
        </mxCell>
        <mxCell id="Fv8zS5hwz5xopzhGxC3f-70" value="" style="rounded=1;whiteSpace=wrap;html=1;fontSize=16;" vertex="1" parent="1">
          <mxGeometry x="154.5" y="664" width="23" height="43" as="geometry" />
        </mxCell>
        <mxCell id="Fv8zS5hwz5xopzhGxC3f-71" value="" style="endArrow=block;dashed=1;endFill=0;endSize=12;html=1;rounded=0;fontSize=12;curved=1;exitX=0.087;exitY=0.914;exitDx=0;exitDy=0;entryX=1;entryY=0.5;entryDx=0;entryDy=0;exitPerimeter=0;" edge="1" parent="1" source="Fv8zS5hwz5xopzhGxC3f-64" target="Fv8zS5hwz5xopzhGxC3f-70">
          <mxGeometry width="160" relative="1" as="geometry">
            <mxPoint x="585" y="670" as="sourcePoint" />
            <mxPoint x="259" y="664" as="targetPoint" />
          </mxGeometry>
        </mxCell>
        <mxCell id="Fv8zS5hwz5xopzhGxC3f-72" value="9: Acceptance of deletion of the request" style="text;whiteSpace=wrap;html=1;fontSize=16;" vertex="1" parent="1">
          <mxGeometry x="325.99993896484375" y="654.9999694824219" width="292" height="41" as="geometry" />
        </mxCell>
        <mxCell id="Fv8zS5hwz5xopzhGxC3f-73" value="" style="endArrow=none;dashed=1;html=1;dashPattern=1 3;strokeWidth=2;rounded=0;fontSize=12;startSize=8;endSize=8;curved=1;entryX=0.5;entryY=1;entryDx=0;entryDy=0;exitX=0.5;exitY=0;exitDx=0;exitDy=0;" edge="1" parent="1" source="Fv8zS5hwz5xopzhGxC3f-74" target="Fv8zS5hwz5xopzhGxC3f-39">
          <mxGeometry width="50" height="50" relative="1" as="geometry">
            <mxPoint x="-209" y="645" as="sourcePoint" />
            <mxPoint x="-261" y="652" as="targetPoint" />
          </mxGeometry>
        </mxCell>
        <mxCell id="Fv8zS5hwz5xopzhGxC3f-74" value="" style="rounded=1;whiteSpace=wrap;html=1;fontSize=16;" vertex="1" parent="1">
          <mxGeometry x="-220" y="655" width="23" height="69" as="geometry" />
        </mxCell>
        <mxCell id="Fv8zS5hwz5xopzhGxC3f-75" value="" style="endArrow=block;dashed=1;endFill=0;endSize=12;html=1;rounded=0;fontSize=12;curved=1;exitX=0;exitY=0.75;exitDx=0;exitDy=0;entryX=0.957;entryY=0.627;entryDx=0;entryDy=0;entryPerimeter=0;" edge="1" parent="1" source="Fv8zS5hwz5xopzhGxC3f-70" target="Fv8zS5hwz5xopzhGxC3f-74">
          <mxGeometry width="160" relative="1" as="geometry">
            <mxPoint x="477" y="792" as="sourcePoint" />
            <mxPoint x="-115" y="800" as="targetPoint" />
          </mxGeometry>
        </mxCell>
        <mxCell id="Fv8zS5hwz5xopzhGxC3f-76" value="10: display The request has been deleted" style="text;whiteSpace=wrap;html=1;fontSize=16;" vertex="1" parent="1">
          <mxGeometry x="-150.999951171875" y="647.999951171875" width="285" height="41" as="geometry" />
        </mxCell>
        <mxCell id="Fv8zS5hwz5xopzhGxC3f-77" value="op" style="shape=umlFrame;whiteSpace=wrap;html=1;pointerEvents=0;fontSize=16;" vertex="1" parent="1">
          <mxGeometry x="-279" y="424" width="521" height="204" as="geometry" />
        </mxCell>
        <mxCell id="Fv8zS5hwz5xopzhGxC3f-78" value="Library" style="shape=umlActor;verticalLabelPosition=bottom;verticalAlign=top;html=1;outlineConnect=0;fontSize=16;" vertex="1" parent="1">
          <mxGeometry x="761" y="19" width="30" height="60" as="geometry" />
        </mxCell>
        <mxCell id="Fv8zS5hwz5xopzhGxC3f-81" value="student" style="shape=umlActor;verticalLabelPosition=bottom;verticalAlign=top;html=1;outlineConnect=0;fontSize=16;" vertex="1" parent="1">
          <mxGeometry x="-227" y="791" width="30" height="60" as="geometry" />
        </mxCell>
        <mxCell id="Fv8zS5hwz5xopzhGxC3f-82" value="device" style="rounded=0;whiteSpace=wrap;html=1;fontSize=16;" vertex="1" parent="1">
          <mxGeometry x="-78.5" y="791" width="120" height="60" as="geometry" />
        </mxCell>
        <mxCell id="Fv8zS5hwz5xopzhGxC3f-83" value="" style="endArrow=none;dashed=1;html=1;rounded=0;fontSize=12;startSize=8;endSize=8;curved=1;entryX=0.5;entryY=0.5;entryDx=0;entryDy=0;entryPerimeter=0;exitX=0.5;exitY=0;exitDx=0;exitDy=0;" edge="1" parent="1" source="Fv8zS5hwz5xopzhGxC3f-84" target="Fv8zS5hwz5xopzhGxC3f-81">
          <mxGeometry width="50" height="50" relative="1" as="geometry">
            <mxPoint x="-212" y="950" as="sourcePoint" />
            <mxPoint x="-165" y="941" as="targetPoint" />
          </mxGeometry>
        </mxCell>
        <mxCell id="Fv8zS5hwz5xopzhGxC3f-88" style="edgeStyle=none;curved=1;rounded=0;orthogonalLoop=1;jettySize=auto;html=1;exitX=1;exitY=0.5;exitDx=0;exitDy=0;fontSize=12;startSize=8;endSize=8;" edge="1" parent="1" source="Fv8zS5hwz5xopzhGxC3f-84" target="Fv8zS5hwz5xopzhGxC3f-86">
          <mxGeometry relative="1" as="geometry" />
        </mxCell>
        <mxCell id="Fv8zS5hwz5xopzhGxC3f-84" value="" style="rounded=1;whiteSpace=wrap;html=1;fontSize=16;" vertex="1" parent="1">
          <mxGeometry x="-224" y="943" width="24" height="60" as="geometry" />
        </mxCell>
        <mxCell id="Fv8zS5hwz5xopzhGxC3f-85" value="" style="endArrow=none;dashed=1;html=1;dashPattern=1 3;strokeWidth=2;rounded=0;fontSize=12;startSize=8;endSize=8;curved=1;entryX=0.5;entryY=1;entryDx=0;entryDy=0;exitX=0.5;exitY=0;exitDx=0;exitDy=0;" edge="1" parent="1" source="Fv8zS5hwz5xopzhGxC3f-86" target="Fv8zS5hwz5xopzhGxC3f-82">
          <mxGeometry width="50" height="50" relative="1" as="geometry">
            <mxPoint x="-18" y="915" as="sourcePoint" />
            <mxPoint x="24" y="943" as="targetPoint" />
          </mxGeometry>
        </mxCell>
        <mxCell id="Fv8zS5hwz5xopzhGxC3f-93" style="edgeStyle=none;curved=1;rounded=0;orthogonalLoop=1;jettySize=auto;html=1;exitX=1;exitY=0.5;exitDx=0;exitDy=0;entryX=0;entryY=0.5;entryDx=0;entryDy=0;fontSize=12;startSize=8;endSize=8;" edge="1" parent="1" source="Fv8zS5hwz5xopzhGxC3f-86" target="Fv8zS5hwz5xopzhGxC3f-92">
          <mxGeometry relative="1" as="geometry" />
        </mxCell>
        <mxCell id="Fv8zS5hwz5xopzhGxC3f-86" value="" style="rounded=1;whiteSpace=wrap;html=1;fontSize=16;" vertex="1" parent="1">
          <mxGeometry x="-29" y="943" width="24" height="60" as="geometry" />
        </mxCell>
        <mxCell id="Fv8zS5hwz5xopzhGxC3f-89" value="1: Select the documents to be printed" style="text;whiteSpace=wrap;html=1;fontSize=16;" vertex="1" parent="1">
          <mxGeometry x="-166" y="905" width="91" height="41" as="geometry" />
        </mxCell>
        <mxCell id="Fv8zS5hwz5xopzhGxC3f-90" value="moodel databases" style="rounded=0;whiteSpace=wrap;html=1;fontSize=16;" vertex="1" parent="1">
          <mxGeometry x="177.5" y="791" width="120" height="60" as="geometry" />
        </mxCell>
        <mxCell id="Fv8zS5hwz5xopzhGxC3f-91" value="" style="endArrow=none;dashed=1;html=1;rounded=0;fontSize=12;startSize=8;endSize=8;curved=1;entryX=0.5;entryY=1;entryDx=0;entryDy=0;exitX=0.5;exitY=0;exitDx=0;exitDy=0;" edge="1" parent="1" source="Fv8zS5hwz5xopzhGxC3f-92" target="Fv8zS5hwz5xopzhGxC3f-90">
          <mxGeometry width="50" height="50" relative="1" as="geometry">
            <mxPoint x="233" y="914" as="sourcePoint" />
            <mxPoint x="235" y="927" as="targetPoint" />
          </mxGeometry>
        </mxCell>
        <mxCell id="Fv8zS5hwz5xopzhGxC3f-92" value="" style="rounded=1;whiteSpace=wrap;html=1;fontSize=16;" vertex="1" parent="1">
          <mxGeometry x="226" y="943" width="24" height="60" as="geometry" />
        </mxCell>
        <mxCell id="Fv8zS5hwz5xopzhGxC3f-94" value="2: Retrieving documents to be printed" style="text;whiteSpace=wrap;html=1;fontSize=16;" vertex="1" parent="1">
          <mxGeometry x="36" y="913" width="139" height="41" as="geometry" />
        </mxCell>
        <mxCell id="Fv8zS5hwz5xopzhGxC3f-95" value="" style="endArrow=none;dashed=1;html=1;rounded=0;fontSize=12;startSize=8;endSize=8;curved=1;entryX=0.5;entryY=1;entryDx=0;entryDy=0;exitX=0.5;exitY=0;exitDx=0;exitDy=0;" edge="1" parent="1" source="Fv8zS5hwz5xopzhGxC3f-98" target="Fv8zS5hwz5xopzhGxC3f-92">
          <mxGeometry width="50" height="50" relative="1" as="geometry">
            <mxPoint x="238" y="1058" as="sourcePoint" />
            <mxPoint x="237" y="1062" as="targetPoint" />
          </mxGeometry>
        </mxCell>
        <mxCell id="Fv8zS5hwz5xopzhGxC3f-96" value="" style="rounded=1;whiteSpace=wrap;html=1;fontSize=16;" vertex="1" parent="1">
          <mxGeometry x="-224" y="1166" width="24" height="60" as="geometry" />
        </mxCell>
        <mxCell id="Fv8zS5hwz5xopzhGxC3f-97" value="" style="rounded=1;whiteSpace=wrap;html=1;fontSize=16;" vertex="1" parent="1">
          <mxGeometry x="-30.5" y="1166" width="24" height="60" as="geometry" />
        </mxCell>
        <mxCell id="Fv8zS5hwz5xopzhGxC3f-98" value="" style="rounded=1;whiteSpace=wrap;html=1;fontSize=16;" vertex="1" parent="1">
          <mxGeometry x="225.5" y="1169" width="24" height="60" as="geometry" />
        </mxCell>
        <mxCell id="Fv8zS5hwz5xopzhGxC3f-101" value="" style="endArrow=none;dashed=1;html=1;rounded=0;fontSize=12;startSize=8;endSize=8;curved=1;entryX=0.5;entryY=1;entryDx=0;entryDy=0;exitX=0.5;exitY=0;exitDx=0;exitDy=0;" edge="1" parent="1" source="Fv8zS5hwz5xopzhGxC3f-97" target="Fv8zS5hwz5xopzhGxC3f-86">
          <mxGeometry width="50" height="50" relative="1" as="geometry">
            <mxPoint x="-46" y="1259" as="sourcePoint" />
            <mxPoint x="4" y="1209" as="targetPoint" />
          </mxGeometry>
        </mxCell>
        <mxCell id="Fv8zS5hwz5xopzhGxC3f-102" value="" style="endArrow=none;dashed=1;html=1;dashPattern=1 3;strokeWidth=2;rounded=0;fontSize=12;startSize=8;endSize=8;curved=1;entryX=0.5;entryY=1;entryDx=0;entryDy=0;exitX=0.5;exitY=0;exitDx=0;exitDy=0;" edge="1" parent="1" source="Fv8zS5hwz5xopzhGxC3f-96" target="Fv8zS5hwz5xopzhGxC3f-84">
          <mxGeometry width="50" height="50" relative="1" as="geometry">
            <mxPoint x="-365" y="1261" as="sourcePoint" />
            <mxPoint x="-315" y="1211" as="targetPoint" />
          </mxGeometry>
        </mxCell>
        <mxCell id="Fv8zS5hwz5xopzhGxC3f-103" value="" style="endArrow=block;dashed=1;endFill=0;endSize=12;html=1;rounded=0;fontSize=12;curved=1;entryX=1;entryY=0.5;entryDx=0;entryDy=0;" edge="1" parent="1" source="Fv8zS5hwz5xopzhGxC3f-98" target="Fv8zS5hwz5xopzhGxC3f-97">
          <mxGeometry width="160" relative="1" as="geometry">
            <mxPoint x="73" y="1215" as="sourcePoint" />
            <mxPoint x="233" y="1215" as="targetPoint" />
          </mxGeometry>
        </mxCell>
        <mxCell id="Fv8zS5hwz5xopzhGxC3f-104" value="" style="endArrow=block;dashed=1;endFill=0;endSize=12;html=1;rounded=0;fontSize=12;curved=1;exitX=0;exitY=0.5;exitDx=0;exitDy=0;entryX=1;entryY=0.5;entryDx=0;entryDy=0;" edge="1" parent="1" source="Fv8zS5hwz5xopzhGxC3f-97" target="Fv8zS5hwz5xopzhGxC3f-96">
          <mxGeometry width="160" relative="1" as="geometry">
            <mxPoint x="-117" y="1177" as="sourcePoint" />
            <mxPoint x="43" y="1177" as="targetPoint" />
          </mxGeometry>
        </mxCell>
        <mxCell id="Fv8zS5hwz5xopzhGxC3f-105" value="op" style="shape=umlFrame;whiteSpace=wrap;html=1;pointerEvents=0;fontSize=16;" vertex="1" parent="1">
          <mxGeometry x="-290" y="884" width="301" height="165" as="geometry" />
        </mxCell>
        <mxCell id="Fv8zS5hwz5xopzhGxC3f-106" value="4: Send a list of the names of the documents to be printed" style="text;whiteSpace=wrap;html=1;fontSize=16;" vertex="1" parent="1">
          <mxGeometry x="-166" y="1118" width="122" height="41" as="geometry" />
        </mxCell>
        <mxCell id="Fv8zS5hwz5xopzhGxC3f-107" value="3: send data" style="text;whiteSpace=wrap;html=1;fontSize=16;" vertex="1" parent="1">
          <mxGeometry x="73.99888097426486" y="1150.9977045036767" width="98" height="41" as="geometry" />
        </mxCell>
        <mxCell id="Fv8zS5hwz5xopzhGxC3f-108" value="" style="endArrow=none;dashed=1;html=1;rounded=0;fontSize=12;startSize=8;endSize=8;curved=1;entryX=0.5;entryY=1;entryDx=0;entryDy=0;exitX=0.5;exitY=0;exitDx=0;exitDy=0;" edge="1" parent="1" source="Fv8zS5hwz5xopzhGxC3f-114" target="Fv8zS5hwz5xopzhGxC3f-96">
          <mxGeometry width="50" height="50" relative="1" as="geometry">
            <mxPoint x="-216" y="1292" as="sourcePoint" />
            <mxPoint x="-215" y="1298" as="targetPoint" />
          </mxGeometry>
        </mxCell>
        <mxCell id="Fv8zS5hwz5xopzhGxC3f-111" value="" style="endArrow=none;dashed=1;html=1;rounded=0;fontSize=12;startSize=8;endSize=8;curved=1;entryX=0.5;entryY=1;entryDx=0;entryDy=0;exitX=0.5;exitY=0;exitDx=0;exitDy=0;" edge="1" parent="1" source="Fv8zS5hwz5xopzhGxC3f-113" target="Fv8zS5hwz5xopzhGxC3f-97">
          <mxGeometry width="50" height="50" relative="1" as="geometry">
            <mxPoint x="7" y="1300" as="sourcePoint" />
            <mxPoint x="11" y="1234" as="targetPoint" />
          </mxGeometry>
        </mxCell>
        <mxCell id="Fv8zS5hwz5xopzhGxC3f-113" value="" style="rounded=1;whiteSpace=wrap;html=1;fontSize=16;" vertex="1" parent="1">
          <mxGeometry x="-26" y="1317" width="24" height="101" as="geometry" />
        </mxCell>
        <mxCell id="Fv8zS5hwz5xopzhGxC3f-114" value="" style="rounded=1;whiteSpace=wrap;html=1;fontSize=16;" vertex="1" parent="1">
          <mxGeometry x="-224" y="1310" width="24" height="60" as="geometry" />
        </mxCell>
        <mxCell id="Fv8zS5hwz5xopzhGxC3f-115" value="" style="endArrow=classic;html=1;rounded=0;fontSize=12;startSize=8;endSize=8;curved=1;exitX=1;exitY=0.5;exitDx=0;exitDy=0;entryX=0;entryY=0.25;entryDx=0;entryDy=0;" edge="1" parent="1" source="Fv8zS5hwz5xopzhGxC3f-114" target="Fv8zS5hwz5xopzhGxC3f-113">
          <mxGeometry width="50" height="50" relative="1" as="geometry">
            <mxPoint x="-182" y="1418" as="sourcePoint" />
            <mxPoint x="-132" y="1368" as="targetPoint" />
          </mxGeometry>
        </mxCell>
        <mxCell id="Fv8zS5hwz5xopzhGxC3f-117" value="5: Choose the paper type, size, and specifications" style="text;whiteSpace=wrap;html=1;fontSize=16;" vertex="1" parent="1">
          <mxGeometry x="-178" y="1264" width="122" height="41" as="geometry" />
        </mxCell>
        <mxCell id="Fv8zS5hwz5xopzhGxC3f-118" value="" style="endArrow=classic;html=1;rounded=0;fontSize=12;startSize=8;endSize=8;curved=1;exitX=1;exitY=0.25;exitDx=0;exitDy=0;entryX=0;entryY=0.5;entryDx=0;entryDy=0;" edge="1" parent="1" source="Fv8zS5hwz5xopzhGxC3f-113" target="Fv8zS5hwz5xopzhGxC3f-121">
          <mxGeometry width="50" height="50" relative="1" as="geometry">
            <mxPoint x="63" y="1466" as="sourcePoint" />
            <mxPoint x="347" y="1356" as="targetPoint" />
          </mxGeometry>
        </mxCell>
        <mxCell id="Fv8zS5hwz5xopzhGxC3f-119" value="Application Databass" style="rounded=0;whiteSpace=wrap;html=1;fontSize=16;" vertex="1" parent="1">
          <mxGeometry x="443" y="795" width="120" height="60" as="geometry" />
        </mxCell>
        <mxCell id="Fv8zS5hwz5xopzhGxC3f-120" value="" style="endArrow=none;dashed=1;html=1;rounded=0;fontSize=12;startSize=8;endSize=8;curved=1;entryX=0.5;entryY=1;entryDx=0;entryDy=0;exitX=0.5;exitY=0;exitDx=0;exitDy=0;" edge="1" parent="1" source="Fv8zS5hwz5xopzhGxC3f-121" target="Fv8zS5hwz5xopzhGxC3f-119">
          <mxGeometry width="50" height="50" relative="1" as="geometry">
            <mxPoint x="503" y="1268" as="sourcePoint" />
            <mxPoint x="431" y="960" as="targetPoint" />
          </mxGeometry>
        </mxCell>
        <mxCell id="Fv8zS5hwz5xopzhGxC3f-121" value="" style="rounded=1;whiteSpace=wrap;html=1;fontSize=16;" vertex="1" parent="1">
          <mxGeometry x="491" y="1310" width="24" height="60" as="geometry" />
        </mxCell>
        <mxCell id="Fv8zS5hwz5xopzhGxC3f-122" value="6: Store the request" style="text;whiteSpace=wrap;html=1;fontSize=16;" vertex="1" parent="1">
          <mxGeometry x="123.00476332720585" y="1294.9987948069854" width="269" height="41" as="geometry" />
        </mxCell>
        <mxCell id="Fv8zS5hwz5xopzhGxC3f-123" value="Library" style="shape=umlActor;verticalLabelPosition=bottom;verticalAlign=top;html=1;outlineConnect=0;fontSize=16;" vertex="1" parent="1">
          <mxGeometry x="778" y="795" width="30" height="60" as="geometry" />
        </mxCell>
        <mxCell id="Fv8zS5hwz5xopzhGxC3f-124" value="" style="endArrow=none;dashed=1;html=1;rounded=0;fontSize=12;startSize=8;endSize=8;curved=1;entryX=0.5;entryY=0.5;entryDx=0;entryDy=0;entryPerimeter=0;exitX=0.5;exitY=0;exitDx=0;exitDy=0;" edge="1" parent="1" source="Fv8zS5hwz5xopzhGxC3f-125" target="Fv8zS5hwz5xopzhGxC3f-123">
          <mxGeometry width="50" height="50" relative="1" as="geometry">
            <mxPoint x="807" y="1267" as="sourcePoint" />
            <mxPoint x="938" y="1034" as="targetPoint" />
          </mxGeometry>
        </mxCell>
        <mxCell id="Fv8zS5hwz5xopzhGxC3f-125" value="" style="rounded=1;whiteSpace=wrap;html=1;fontSize=16;" vertex="1" parent="1">
          <mxGeometry x="781" y="1380" width="24" height="60" as="geometry" />
        </mxCell>
        <mxCell id="Fv8zS5hwz5xopzhGxC3f-126" value="Send a print request" style="endArrow=classic;html=1;rounded=0;fontSize=12;startSize=8;endSize=8;curved=1;exitX=1.083;exitY=0.913;exitDx=0;exitDy=0;exitPerimeter=0;entryX=0;entryY=0.5;entryDx=0;entryDy=0;" edge="1" parent="1" source="Fv8zS5hwz5xopzhGxC3f-113" target="Fv8zS5hwz5xopzhGxC3f-125">
          <mxGeometry width="50" height="50" relative="1" as="geometry">
            <mxPoint x="9" y="1489" as="sourcePoint" />
            <mxPoint x="59" y="1439" as="targetPoint" />
          </mxGeometry>
        </mxCell>
      </root>
    </mxGraphModel>
  </diagram>
</mxfile>
